<?xml version="1.0" standalone="no"?>
<!DOCTYPE svg PUBLIC "-//W3C//DTD SVG 1.1//EN" "http://www.w3.org/Graphics/SVG/1.1/DTD/svg11.dtd" >
<svg xmlns="http://www.w3.org/2000/svg" xmlns:xlink="http://www.w3.org/1999/xlink" version="1.1">
<metadata></metadata>
<defs>
<font id="johnhancokcpmedium" horiz-adv-x="1376" >
<font-face units-per-em="2048" ascent="1638" descent="-410" />
<missing-glyph horiz-adv-x="616" />
<glyph horiz-adv-x="0" />
<glyph horiz-adv-x="682" />
<glyph unicode=" "  horiz-adv-x="616" />
<glyph unicode="&#x09;" horiz-adv-x="616" />
<glyph unicode="&#xa0;" horiz-adv-x="616" />
<glyph unicode="!" horiz-adv-x="595" d="M68 1245q0 96 69 163t162 67q96 0 162.5 -68.5t66.5 -161.5q0 -135 -59.5 -382t-122.5 -400h-96q-62 155 -122 402t-60 380zM98 201q0 83 59 141.5t142 58.5t142 -58.5t59 -141.5t-59 -142t-142 -59t-142 59t-59 142z" />
<glyph unicode="&#x22;" horiz-adv-x="1138" d="M78 1233q0 85 63 143t150 58q94 0 157.5 -70.5t63.5 -167.5q0 -77 -45 -152.5t-109.5 -128t-129 -87t-109.5 -42.5v107q165 53 207 162q-30 -15 -50 -15q-82 0 -140 56t-58 137zM631 1233q0 85 63 143t150 58q94 0 157.5 -70.5t63.5 -167.5q0 -77 -45 -152.5t-109.5 -128 t-129 -87t-109.5 -42.5v107q165 53 207 162q-30 -15 -50 -15q-82 0 -140 56t-58 137z" />
<glyph unicode="#" horiz-adv-x="1024" d="M14 412v163h209l35 259h-184v163h209l55 412h178l-55 -412h203l55 412h176l-53 -412h168v-163h-193l-35 -259h168v-163h-192l-58 -412h-176l54 412h-201l-58 -412h-176l56 412h-185zM403 575h201l35 259h-203z" />
<glyph unicode="$" horiz-adv-x="1011" d="M63 315q0 78 51 135.5t126 57.5q68 0 118 -46.5t50 -113.5q0 -59 -45.5 -116t-81.5 -64q19 -32 69.5 -57t110.5 -31v514l-131 53q-262 144 -262 348q0 170 113 298t280 155v45h86v-39q96 -2 180 -38.5t138.5 -107.5t54.5 -161q0 -72 -52.5 -124t-124.5 -52 q-65 0 -108 48.5t-43 115.5q0 62 35 105t96 58q-42 36 -80.5 49t-95.5 13v-436l180 -84q107 -50 164 -157t57 -245q0 -171 -116.5 -296t-284.5 -140v-129h-86v129q-104 7 -192 42.5t-147 106t-59 164.5zM313 1176q0 -129 148 -213v385q-65 -20 -106.5 -65t-41.5 -107z M547 84q77 19 126.5 88t49.5 156q0 120 -164 225l-12 8v-477z" />
<glyph unicode="%" horiz-adv-x="1138" d="M41 1073q0 153 62 261t151 108q90 0 153.5 -107.5t63.5 -261.5q0 -152 -63 -259t-152 -107t-152 107t-63 259zM68 -33l886 1475h111l-889 -1475h-108zM211 805q0 -24 12.5 -37.5t32.5 -13.5t32.5 13.5t12.5 37.5v538q0 24 -12.5 37t-32.5 13t-32.5 -13t-12.5 -37v-538z M666 334q0 153 62 260.5t151 107.5q90 0 153.5 -107t63.5 -261q0 -152 -63 -259.5t-152 -107.5t-152 107.5t-63 259.5zM836 66q0 -24 13 -38t32 -14t32 14t13 38v538q0 24 -12.5 36.5t-32.5 12.5t-32.5 -12.5t-12.5 -36.5v-538z" />
<glyph unicode="&#x26;" horiz-adv-x="1486" d="M57 352q0 86 23.5 160.5t59.5 126.5t89.5 97t102.5 73.5t110 54.5q-39 42 -72.5 119.5t-33.5 155.5q0 92 60 161t148.5 101.5t188.5 32.5q68 0 132 -15t119 -44t88.5 -79t33.5 -112q0 -40 -22.5 -81t-54.5 -71.5t-68.5 -56.5t-63.5 -40t-41 -17l217 -353l66 144h-115v114 h360v-114h-94l-137 -291l176 -312h80v-106h-475l-57 98q-46 -37 -145.5 -80t-190.5 -43q-121 0 -231 46t-181.5 134t-71.5 197zM406 573q0 -80 36.5 -159t95 -132.5t132.5 -79t149 2.5l-311 553q-38 -16 -70 -71t-32 -114zM700 1190l97 -166q32 7 67 54t35 98q0 55 -32 95 t-83 40t-77.5 -44t-6.5 -77z" />
<glyph unicode="'" horiz-adv-x="593" d="M80 1233q0 85 63 143t150 58q94 0 157.5 -70.5t63.5 -167.5q0 -77 -45 -152.5t-109.5 -128t-129 -87t-109.5 -42.5v107q165 53 207 162q-29 -15 -49 -15q-82 0 -140.5 56t-58.5 137z" />
<glyph unicode="(" horiz-adv-x="655" d="M98 575q0 595 508 863v-156q-31 -21 -54.5 -53t-38.5 -64t-25 -81t-14.5 -87t-6.5 -100t-2 -101.5t1 -111t1 -109.5t-1 -113t-1 -119.5t2 -113.5t6.5 -113.5t14.5 -100.5t25 -93.5t38.5 -72.5t54.5 -56v-155q-131 69 -230.5 174t-159 229.5t-89 258.5t-29.5 275z" />
<glyph unicode=")" horiz-adv-x="655" d="M49 -207q31 21 54.5 56t38.5 72.5t25 93.5t14.5 100.5t6.5 113.5t2 113.5t-1 119.5t-1 113t1 109.5t1 111t-2 101.5t-6.5 100t-14.5 87t-25 81t-38.5 64t-54.5 53v156q508 -268 508 -863q0 -141 -29.5 -275t-89 -258.5t-159 -229.5t-230.5 -174v155z" />
<glyph unicode="*" horiz-adv-x="1024" d="M111 823q0 99 141 111q156 11 203 55v12q-49 45 -203 56q-141 12 -141 110q0 39 30.5 71t69.5 32q31 0 55.5 -16.5t44.5 -44t40 -57t53 -62.5t73 -54l15 11q0 63 -13 108.5t-29 66t-29 51t-13 66.5q0 51 32 77t72 26t72 -26t32 -77q0 -36 -13 -66.5t-29 -51t-29 -66 t-13 -108.5l15 -11q40 21 73 54t53 62.5t40 57t44.5 44t55.5 16.5q39 0 69.5 -32t30.5 -71q0 -98 -141 -110q-154 -11 -203 -56v-12q47 -44 203 -55q141 -12 141 -111q0 -39 -30.5 -70.5t-69.5 -31.5q-31 0 -55.5 16.5t-44.5 43.5t-40 57t-53 62.5t-73 53.5l-15 -10 q0 -63 13 -108.5t29 -66.5t29 -51.5t13 -66.5q0 -51 -32 -76.5t-72 -25.5t-72 25.5t-32 76.5q0 36 13 66.5t29 51.5t29 66.5t13 108.5l-15 10q-40 -21 -73 -53.5t-53 -62.5t-40 -57t-44.5 -43.5t-55.5 -16.5q-39 0 -69.5 31.5t-30.5 70.5z" />
<glyph unicode="+" horiz-adv-x="1228" d="M125 383v213h383v383h213v-383h383v-213h-383v-383h-213v383h-383z" />
<glyph unicode="," horiz-adv-x="550" d="M49 193q0 85 62.5 142.5t150.5 57.5q94 0 157.5 -70t63.5 -167q0 -77 -45 -152.5t-109.5 -128t-129 -87t-109.5 -42.5v107q78 25 130.5 62t76.5 99q-29 -14 -49 -14q-82 0 -140.5 56t-58.5 137z" />
<glyph unicode="-" horiz-adv-x="557" d="M55 389v201h447v-201h-447z" />
<glyph unicode="." horiz-adv-x="536" d="M68 201q0 83 58.5 141.5t141.5 58.5t142 -58.5t59 -141.5t-59 -142t-142 -59t-141.5 59t-58.5 142z" />
<glyph unicode="/" horiz-adv-x="851" d="M43 -33l547 1475h219l-549 -1475h-217z" />
<glyph unicode="0" horiz-adv-x="1007" d="M72 735q0 200 57.5 369t156 267.5t214.5 98.5q118 0 218.5 -96.5t159 -266t58.5 -372.5q0 -200 -58 -369t-157.5 -267.5t-216.5 -98.5t-216.5 98.5t-157.5 267.5t-58 369zM414 197q0 -46 25.5 -74.5t64.5 -28.5t64.5 28.5t25.5 74.5v1075q0 46 -25.5 73t-64.5 27 t-64.5 -27t-25.5 -73v-1075z" />
<glyph unicode="1" horiz-adv-x="952" d="M80 1020v98q103 29 202 122t134 194h241v-1328h213v-106h-788v106h217v992q-38 -21 -106 -45t-113 -33z" />
<glyph unicode="2" horiz-adv-x="1021" d="M51 1049q0 179 114 296t310 117q194 0 326.5 -119t132.5 -299q0 -79 -23.5 -146.5t-71.5 -125t-96.5 -99.5t-121.5 -95q-166 -120 -271 -263h471v197h113v-512h-868q0 106 80 243.5t196 241.5q105 94 165 242t60 322q0 56 -10 108t-31 98t-59 73.5t-88 27.5 q-71 0 -130 -66.5t-63 -118.5q40 19 86 19q75 0 128 -53.5t53 -128.5t-53 -130t-128 -55q-92 0 -156.5 66.5t-64.5 159.5z" />
<glyph unicode="3" horiz-adv-x="995" d="M47 285q0 92 60 154.5t151 68.5q77 6 133.5 -56t50.5 -141q-6 -73 -71.5 -117t-141.5 -38q23 -37 66.5 -57.5t97.5 -20.5q168 0 168 336q0 35 -0.5 54.5t-3.5 49t-10.5 47t-19 39.5t-30.5 35t-45 25.5t-62.5 19t-82.5 8.5v82q141 -1 198.5 82.5t57.5 228.5 q0 68 -15.5 126.5t-55.5 101.5t-99 43q-36 0 -70 -16.5t-49 -36.5q63 -15 117.5 -59.5t54.5 -108.5q0 -71 -53.5 -121.5t-126.5 -50.5q-79 0 -136.5 53.5t-57.5 130.5q0 72 36 131t95 95.5t131.5 56.5t148.5 20q108 0 204 -43.5t157 -126t61 -186.5q0 -129 -89.5 -224 t-213.5 -110q56 -15 112 -45.5t105.5 -74.5t80 -105.5t30.5 -128.5q0 -122 -68.5 -222t-179 -154.5t-236.5 -54.5q-172 0 -285.5 90.5t-113.5 219.5z" />
<glyph unicode="4" horiz-adv-x="964" d="M37 438v180l389 816h340v-879h129v-117h-129v-332h119v-106h-578v106h119v332h-389zM115 555h311v653z" />
<glyph unicode="5" horiz-adv-x="1032" d="M68 305q0 99 56.5 151t156.5 52q71 0 119.5 -53.5t48.5 -126.5q0 -49 -37 -91t-88.5 -59t-92.5 -2q20 -42 62 -70t94 -28q56 0 97 32t61.5 86t29.5 111.5t9 122.5q0 47 -2 83.5t-9 81.5t-21.5 77t-36.5 60.5t-57.5 43.5t-82.5 15q-88 1 -156 -46t-110 -118l-21 10 l143 797h697l-74 -299h-586l-49 -304q42 32 121.5 53t165.5 21q90 0 172 -36.5t140.5 -97.5t91 -144.5t28.5 -173.5q-9 -196 -146 -330.5t-331 -134.5q-100 0 -189 38t-146.5 112t-57.5 167z" />
<glyph unicode="6" horiz-adv-x="995" d="M61 709q0 135 37 270t102.5 244.5t164.5 178t213 68.5q123 0 215 -70.5t92 -182.5q0 -73 -50.5 -127t-121.5 -54q-68 0 -118 46.5t-50 113.5q0 59 42 94t109 25q-26 61 -108 61q-220 0 -203 -577q10 18 79 52t126 34q105 0 186 -64.5t121.5 -163.5t40.5 -211 q0 -121 -52 -225.5t-148 -168.5t-214 -64q-90 0 -167 43t-130.5 114.5t-91.5 165.5t-56 195t-18 203zM399 355q0 -19 1.5 -55t4.5 -57t7.5 -50t13 -46t19.5 -34t27 -25t36 -8q26 0 45 12.5t30 41t18 53t9.5 70.5t3 70t0.5 74v23v23v55t-1 54t-4 55.5t-7.5 49t-12.5 45 t-19 33t-26.5 24t-35.5 7.5t-36 -8t-27 -25t-19.5 -34t-13 -47t-7.5 -50.5t-4.5 -57t-1.5 -55v-55.5v-14v-14v-55z" />
<glyph unicode="7" horiz-adv-x="968" d="M45 967v467h836v-299q-155 -177 -236.5 -479t-42.5 -656h-389q21 580 532 1135h-606v-168h-94z" />
<glyph unicode="8" horiz-adv-x="1060" d="M84 332q0 127 76.5 224t161.5 126q-24 14 -58.5 45t-75 76.5t-68.5 106t-28 116.5q0 178 126.5 303t305.5 125l2 -4q106 0 199.5 -40t154 -118.5t60.5 -179.5q0 -93 -65.5 -167t-151.5 -114q84 -35 169 -155.5t85 -249.5q0 -192 -133.5 -321.5t-337.5 -129.5 q-111 0 -209 49.5t-155.5 132t-57.5 175.5zM272 375q0 -115 60.5 -204t161.5 -89q86 0 140 64t54 161q0 40 -14 79t-31 67.5t-50 59.5t-52.5 47.5t-58 40t-47.5 28.5t-38 20l-2 -2q-40 -15 -81.5 -97.5t-41.5 -174.5zM365 1167q0 -53 24 -98t74.5 -81.5t81 -54t88.5 -45.5 q2 -1 3.5 -1.5t3 -1.5t3.5 -2q57 33 86 98.5t29 148.5q0 100 -56 165t-145 65q-79 0 -135.5 -56.5t-56.5 -136.5z" />
<glyph unicode="9" horiz-adv-x="995" d="M45 1012q0 121 52 225.5t148 168.5t214 64q90 0 167 -43t130.5 -114.5t91.5 -165t56 -194.5t18 -203q0 -135 -37 -270t-102 -245t-164 -178.5t-213 -68.5q-123 0 -215.5 71t-92.5 183q0 73 50.5 126.5t121.5 53.5q68 0 118 -46.5t50 -113.5q-27 -138 -151 -119 q26 -61 108 -61q220 0 203 577q-10 -18 -79 -52t-126 -34q-105 0 -186 64.5t-121.5 163.5t-40.5 211zM367 791q0 -51 27 -81t69 -30t69 30t27 81v479q0 51 -27 80.5t-69 29.5t-69 -29.5t-27 -80.5v-479z" />
<glyph unicode=":" horiz-adv-x="536" d="M68 201q0 83 58.5 141.5t141.5 58.5t142 -58.5t59 -141.5t-59 -142t-142 -59t-141.5 59t-58.5 142zM68 883q0 83 58.5 141.5t141.5 58.5t142 -58.5t59 -141.5t-59 -142t-142 -59t-141.5 59t-58.5 142z" />
<glyph unicode=";" horiz-adv-x="569" d="M68 193q0 85 62.5 142.5t150.5 57.5q94 0 157.5 -70t63.5 -167q0 -77 -45 -152.5t-109.5 -128t-129 -87t-109.5 -42.5v107q77 25 129.5 62t76.5 99l-15 -6t-17.5 -6t-16.5 -2q-82 0 -140 56t-58 137zM80 883q0 83 59 141.5t142 58.5t141.5 -58.5t58.5 -141.5t-58.5 -142 t-141.5 -59t-142 59t-59 142z" />
<glyph unicode="&#x3c;" horiz-adv-x="1228" d="M123 420v139l983 436v-237l-625 -269l625 -268v-237z" />
<glyph unicode="=" horiz-adv-x="1228" d="M125 168v213h979v-213h-979zM125 598v213h979v-213h-979z" />
<glyph unicode="&#x3e;" horiz-adv-x="1228" d="M123 -16v237l625 268l-625 269v237l983 -436v-139z" />
<glyph unicode="?" horiz-adv-x="1087" d="M72 1206q0 76 31.5 132.5t86 88.5t118.5 47t138 15q270 0 420 -102.5t150 -288.5q0 -115 -66 -207q-28 -45 -80.5 -88.5t-104.5 -77.5t-101.5 -71.5t-80 -87t-30.5 -109.5h-111q0 90 31.5 192.5t69 178.5t69 167.5t31.5 161.5q0 95 -66.5 165.5t-164.5 70.5 q-37 0 -78 -14t-66 -36q10 5 35 5q73 0 119.5 -48.5t46.5 -111.5q0 -75 -59 -128.5t-136 -53.5q-85 0 -143.5 59.5t-58.5 140.5zM303 201q0 83 59 142.5t142 59.5t140.5 -59t57.5 -143t-57.5 -142.5t-140.5 -58.5t-142 59t-59 142z" />
<glyph unicode="A" horiz-adv-x="1462" d="M35 0v106h84l448 1328h328l446 -1328h86v-106h-602v106h123l-102 308h-492l-104 -308h104v-106h-319zM389 518h420l-211 625z" />
<glyph unicode="B" horiz-adv-x="1374" d="M47 0v106h119v1221h-119v107h782q103 0 202 -41.5t166 -120.5t67 -174q0 -56 -17.5 -102t-43 -77t-66.5 -58t-76 -42.5t-84 -32.5q57 -10 115 -38.5t110 -74t84.5 -114.5t32.5 -149q0 -115 -64.5 -210t-170 -147.5t-226.5 -52.5h-811zM553 117h180q70 0 124 84t54 219 q0 125 -43 208t-131 83h-184v-594zM553 829h184q36 0 64.5 24.5t44 65t23.5 85.5t8 92q0 101 -41 168t-127 67h-156v-502z" />
<glyph unicode="C" horiz-adv-x="1353" d="M78 690q0 121 32.5 237.5t94.5 214t146 171.5t192.5 115.5t228.5 41.5q104 0 212.5 -38.5t137.5 -71.5v86h115v-373h-115v96q-16 33 -40.5 63t-60.5 60t-87.5 48t-110.5 18q-76 0 -131.5 -29t-89.5 -78t-54 -127t-27 -161t-7 -195q0 -131 9 -226.5t32 -177.5t62.5 -132.5 t101 -78.5t145.5 -28q68 0 127 29.5t94.5 70.5t55.5 75.5t24 53.5l105 -47q-50 -134 -193 -233t-313 -99q-189 0 -347.5 97.5t-248.5 262t-90 355.5z" />
<glyph unicode="D" horiz-adv-x="1427" d="M74 0v106h121v1219h-121v109h717q141 0 254 -63t182 -167t105 -229.5t36 -259.5q0 -106 -22 -208.5t-69 -195t-113.5 -162t-162.5 -109.5q-94 -40 -205 -40h-5h-717zM582 106h131q40 0 78.5 16t72 47.5t54 86.5t20.5 125v670q0 70 -20.5 124.5t-54 86t-72 47.5t-78.5 16 h-131v-1219z" />
<glyph unicode="E" horiz-adv-x="1290" d="M47 0v106h119v1219h-119v109h1135v-361h-119v127l-129 125h-381v-514h238v141h106v-379h-106v142h-238v-609h422l127 127v183h119v-416h-1174z" />
<glyph unicode="F" horiz-adv-x="1210" d="M47 0v106h119v1223h-119v105h1133v-359h-119v125l-127 127h-381v-514h235v141h109v-379h-109v142h-235v-611h141v-106h-647z" />
<glyph unicode="G" horiz-adv-x="1449" d="M55 713q0 147 50 284.5t137.5 242t214.5 167.5t272 63q230 0 373 -116v88h115v-379h-115v113q-19 28 -31.5 44.5t-41 44.5t-57.5 44t-74.5 28.5t-98.5 12.5q-61 0 -109.5 -20t-81 -52.5t-56 -82.5t-36.5 -99.5t-21 -115t-10 -117.5t-2 -118q0 -76 5.5 -148t17.5 -149 t34.5 -140.5t54 -114.5t78.5 -80t105 -29q67 0 92 14v514h-135v115h637v-115h-133v-538q-237 -103 -483 -103q-195 0 -357 102.5t-253 272.5t-91 367z" />
<glyph unicode="H" horiz-adv-x="1458" d="M47 0v106h119v1223h-119v105h627v-105h-119v-504h348v504h-119v105h627v-105h-119v-1223h119v-106h-627v106h119v603h-348v-603h119v-106h-627z" />
<glyph unicode="I" horiz-adv-x="720" d="M45 0v106h121v1221h-121v107h631v-107h-121v-1221h121v-106h-631z" />
<glyph unicode="J" horiz-adv-x="1167" d="M27 297q0 98 64.5 165.5t160.5 67.5q90 0 156.5 -53.5t66.5 -136.5q0 -77 -51 -130.5t-107 -53.5q-27 0 -43 14q7 -44 49.5 -64t98.5 -20q63 0 111 51.5t69 114.5t21 117v958h-129v107h624v-107h-129v-952q0 -183 -137 -293.5t-367 -110.5q-198 0 -328 88.5t-130 237.5z " />
<glyph unicode="K" horiz-adv-x="1476" d="M47 0v106h121v1221h-121v107h627v-107h-119v-633l573 633h-129v107h435v-107h-136l-266 -295l314 -926h108v-106h-629v106h117l-217 631l-170 -190v-441h119v-106h-627z" />
<glyph unicode="L" horiz-adv-x="1198" d="M49 0v106h121v1221h-121v107h627v-107h-119v-1221h336l147 148v184h121v-438h-1112z" />
<glyph unicode="M" horiz-adv-x="1832" d="M45 0v106h121v1223h-121v105h557l291 -940h63l295 940h537v-105h-121v-1223h121v-106h-627v106h119v1031l-350 -1137h-279l-350 1137v-1031h121v-106h-377z" />
<glyph unicode="N" horiz-adv-x="1456" d="M51 0v106h119v1221h-119v107h481l621 -916v809h-121v107h375v-107h-119v-1327h-256l-725 1071v-965h119v-106h-375z" />
<glyph unicode="O" d="M70 717q0 205 82.5 379t225 275.5t310.5 101.5q125 0 239.5 -60t197.5 -161.5t132.5 -241.5t49.5 -293q0 -205 -83.5 -379.5t-226 -275.5t-309.5 -101q-126 0 -240.5 60t-197 161t-131.5 241t-49 294zM496 315q0 -96 52 -164.5t136 -68.5t136 68.5t52 164.5v818 q0 96 -52 164.5t-136 68.5t-136 -68.5t-52 -164.5v-818z" />
<glyph unicode="P" horiz-adv-x="1333" d="M49 0v106h123v1221h-123v107h881q158 0 269.5 -111.5t111.5 -269.5q0 -160 -111.5 -271.5t-269.5 -111.5h-371v-564h119v-106h-629zM559 776h164q57 0 109.5 42t52.5 112v244q0 70 -52.5 111.5t-109.5 41.5h-164v-551z" />
<glyph unicode="Q" horiz-adv-x="1382" d="M70 707q0 113 28 223.5t82.5 206.5t128.5 170t172 116.5t207 42.5q115 0 226.5 -55t199 -151.5t141.5 -240.5t54 -308q0 -209 -89 -390.5t-247 -281.5q63 -105 144 -182.5t159 -77.5q12 0 18 2l27 -96q-67 -15 -137 -15q-173 0 -341 82t-261 215q-130 20 -260.5 136.5 t-184.5 261.5q-67 165 -67 342zM500 309q0 -95 53 -164t135 -69q84 0 136.5 68.5t52.5 164.5v817q0 96 -52.5 165t-136.5 69t-136 -69t-52 -165v-817z" />
<glyph unicode="R" horiz-adv-x="1445" d="M35 0v106h119v1219h-119v109h788q81 0 181 -35.5t155 -89.5q58 -41 96.5 -109.5t38.5 -148.5q0 -136 -81.5 -239.5t-206.5 -131.5l299 -574h118v-106h-510l-292 641h-80v-535h123v-106h-629zM541 745h129h5q75 0 135 53q62 55 62 130v217q0 75 -62 129q-60 52 -134 51h-6 h-129v-580z" />
<glyph unicode="S" horiz-adv-x="1294" d="M68 1024q0 93 44 176.5t116.5 142t167 93t194.5 34.5q224 0 405 -108v68h119v-369h-119v153q-167 138 -354 138q-90 0 -154.5 -50t-64.5 -137q0 -36 16 -65t48 -52t59 -36.5t71 -32.5q21 -9 158.5 -59.5t220.5 -94.5q107 -54 169.5 -150.5t62.5 -221.5q0 -128 -76.5 -237 t-210.5 -172.5t-295 -63.5q-118 0 -236.5 35t-193.5 79v-84h-119v412h119v-184q63 -48 161 -88.5t199 -40.5q103 0 184 59.5t81 150.5q0 40 -15 73.5t-36.5 55.5t-57 42t-63 30.5t-68.5 24.5q-32 11 -93.5 30t-91.5 29.5t-75 32.5t-86 51q-95 66 -140.5 146t-45.5 190z" />
<glyph unicode="T" horiz-adv-x="1296" d="M43 1018v416h1210v-416h-118v184l-127 127h-166v-1223h145v-106h-678v106h146v1223h-166l-127 -127v-184h-119z" />
<glyph unicode="U" d="M35 1327v107h627v-107h-119v-885q8 -169 76.5 -245t214.5 -76q122 0 201 72t79 204v932h-121v105h348v-109h-112l2 -1006q0 -18 -10.5 -48.5t-33 -72.5t-64 -83t-95.5 -76.5t-136 -57.5t-179 -22q-124 0 -223 28.5t-160 73t-101.5 104t-56.5 115.5t-16 113v934h-121z" />
<glyph unicode="V" horiz-adv-x="1482" d="M23 1327v107h639v-107h-123l338 -977l333 977h-102v107h352v-107h-104l-457 -1327h-324l-454 1327h-98z" />
<glyph unicode="W" horiz-adv-x="2238" d="M23 1327v107h608v-107h-129l280 -969l283 969h-113v107h588v-107h-113l283 -969l281 969h-131v107h356v-107h-98l-385 -1327h-324l-281 967h-41l-282 -967h-322l-385 1327h-75z" />
<glyph unicode="X" horiz-adv-x="1525" d="M31 0v106h86l426 596l-391 625h-115v107h702v-107h-123l267 -430l307 430h-107v107h377v-107h-117l-387 -543l422 -678h117v-106h-704v106h124l-303 482l-344 -482h140v-106h-377z" />
<glyph unicode="Y" horiz-adv-x="1458" d="M20 1327v107h658v-107h-131l327 -616l338 616h-125v107h351v-107h-90l-428 -795v-426h118v-106h-626v106h120v433l-426 788h-86z" />
<glyph unicode="Z" horiz-adv-x="1224" d="M49 0v106l684 1223h-356l-154 -151v-156h-119v412h1072v-105l-684 -1223h421l136 140v166h120v-412h-1120z" />
<glyph unicode="[" horiz-adv-x="610" d="M154 -369v1811h411v-86q-115 0 -154.5 -30.5t-39.5 -96.5v-1385q0 -66 39.5 -96.5t154.5 -30.5v-86h-411z" />
<glyph unicode="\" horiz-adv-x="811" d="M23 1442h219l546 -1475h-217z" />
<glyph unicode="]" horiz-adv-x="610" d="M45 -283q115 0 155 30.5t40 96.5v1385q0 66 -40 96.5t-155 30.5v86h412v-1811h-412v86z" />
<glyph unicode="^" horiz-adv-x="937" d="M53 702l332 707h172l332 -707h-221l-197 451l-199 -451h-219z" />
<glyph unicode="_" horiz-adv-x="1024" d="M0 -154h1024v-102h-1024v102z" />
<glyph unicode="`" horiz-adv-x="569" d="M-33 1403q0 35 27 57.5t57 22.5q31 0 56.5 -15t62.5 -57l252 -297h-105l-282 189q-42 29 -55 46.5t-13 53.5z" />
<glyph unicode="a" horiz-adv-x="1175" d="M68 258q0 48 9 87.5t29.5 70t42 53t58 44.5t65 35.5t74.5 33.5q47 20 118.5 36.5t118 26t82 34.5t35.5 66v101q0 44 -60.5 90.5t-123.5 46.5q-70 0 -106 -33q40 -7 77 -46.5t37 -88.5q0 -55 -54 -100t-120 -45q-79 0 -149 44.5t-70 100.5q0 63 27 111t69.5 76.5t103 47 t120 25t127.5 6.5q191 0 333 -73t142 -166v-744h92v-98h-445v57q-35 -24 -114 -48.5t-152 -24.5q-50 0 -111 17.5t-119 50t-97 87t-39 119.5zM461 291q5 -76 46 -124t105 -48q61 0 88 37v413q-10 -6 -46 -18t-66 -27.5t-63 -43.5t-50 -76q-14 -41 -14 -94v-19z" />
<glyph unicode="b" horiz-adv-x="1249" d="M41 1335v99h459v-398q11 5 31.5 13.5t79.5 22t114 13.5q101 0 187.5 -45t144 -119.5t90.5 -172.5t33 -203q0 -86 -20 -169t-60 -155.5t-95 -127.5t-130.5 -86.5t-161.5 -31.5q-83 0 -147.5 19.5t-82.5 54.5l-37 -49h-290v1335h-115zM500 170q33 -42 65 -63t76 -21 q62 0 104.5 60t42.5 118v514q0 72 -45.5 130.5t-111.5 58.5q-54 0 -80.5 -14.5t-50.5 -49.5v-733z" />
<glyph unicode="c" horiz-adv-x="1105" d="M70 528q0 152 79 280t211.5 200.5t286.5 72.5q72 0 141 -18t126.5 -51.5t92.5 -88t35 -122.5q0 -86 -56.5 -148.5t-139.5 -62.5q-82 0 -142.5 52t-60.5 130q0 63 42 103.5t112 52.5q-59 41 -123 41q-62 0 -103 -27t-63.5 -82.5t-31.5 -125t-9 -169.5q0 -225 63.5 -328.5 t186.5 -103.5q74 0 127.5 35t109.5 104l90 -59q-50 -62 -88.5 -101t-87 -74t-104 -51t-121.5 -16q-154 0 -285.5 73.5t-209.5 202.5t-78 281z" />
<glyph unicode="d" horiz-adv-x="1220" d="M51 522q0 144 55 271t163 208.5t245 81.5q36 0 68 -8.5t70 -23t67 -21.5v307h-137v99h497v-1336h103v-98h-463v57q-29 -11 -70.5 -34t-75.5 -35.5t-75 -12.5q-132 0 -236 79.5t-157.5 203t-53.5 262.5zM434 262q0 -65 36.5 -114.5t94.5 -49.5q46 0 88.5 21.5t63.5 52.5 v721l2 2q-22 28 -62 48t-82 20q-59 0 -100 -49t-41 -107v-545z" />
<glyph unicode="e" horiz-adv-x="1112" d="M70 518q0 147 64.5 276t182.5 208t261 79q182 0 310.5 -104.5t155.5 -288.5l-593 -274q12 -111 99 -195t204 -84q129 0 233 129l62 -53q-54 -95 -181 -165.5t-284 -70.5q-144 0 -263 75t-185 199t-66 269zM453 514l249 123v221q0 53 -36 90t-88 37t-88.5 -37t-36.5 -90 v-344z" />
<glyph unicode="f" horiz-adv-x="667" d="M55 96h99v840q0 30 -41 123t-41 155q0 109 85 164.5t230 55.5q63 0 123.5 -16t104.5 -51.5t44 -82.5v-67h-249v53q0 14 -17 29.5t-41 15.5q-26 0 -39.5 -16.5t-13.5 -41.5q0 -37 31.5 -75.5t74.5 -64.5t84 -43t62 -17h80v-127h-123v-832h92v-98h-543z" />
<glyph unicode="g" horiz-adv-x="1226" d="M49 504q0 108 31.5 208.5t88.5 180.5t146 128t195 48q75 0 137.5 -26.5t83.5 -47.5v54h467v-99h-98v-1028q0 -160 -140.5 -239.5t-384.5 -79.5q-60 0 -110.5 2.5t-109.5 10t-103.5 23t-82.5 38t-58.5 58t-20.5 81.5q0 65 62.5 113t140.5 48q69 0 129 -35q59 -34 59 -83 q0 -59 -33 -87q-33 -26 -114 -38q49 -21 75.5 -27t75.5 -6q63 0 110 21t74 55t42.5 81t19.5 93q2 23 2 47.5t-2 50.5q-44 -47 -84 -59.5t-115 -12.5q-108 0 -200 43t-153.5 116t-95.5 168t-34 200zM432 291q0 -40 16.5 -84t57.5 -80.5t96 -36.5q50 0 78 13.5t51 43.5v738 q-7 8 -19 19t-47.5 29.5t-68.5 18.5q-64 0 -114 -55.5t-50 -118.5v-487z" />
<glyph unicode="h" horiz-adv-x="1269" d="M41 0v98h113v1237h-113v99h469v-426q68 38 134 56.5t153 18.5q81 0 156 -29.5t123.5 -83.5t49.5 -118v-754h103v-98h-463v842q0 35 -38.5 74.5t-84.5 39.5q-41 0 -76.5 -14.5t-56.5 -38.5v-805h113v-98h-582z" />
<glyph unicode="i" horiz-adv-x="692" d="M63 954v95h459v-951h107v-98h-559v98h106v856h-113zM129 1288q0 67 62.5 114.5t150.5 47.5t150.5 -47.5t62.5 -114.5q0 -68 -62.5 -116t-150.5 -48t-150.5 48t-62.5 116z" />
<glyph unicode="j" horiz-adv-x="606" d="M63 954v95h459v-1168q0 -115 -61.5 -176t-177.5 -61h-217v102q110 0 110 86v1122h-113zM129 1288q0 67 62.5 114.5t150.5 47.5t150.5 -47.5t62.5 -114.5q0 -68 -62.5 -116t-150.5 -48t-150.5 48t-62.5 116z" />
<glyph unicode="k" horiz-adv-x="1253" d="M41 0v98h94v1237h-94v99h451v-877l446 397h-109v95h375v-95h-82l-233 -200l254 -656h86v-98h-451l-184 500l-102 -88v-314h118v-98h-569z" />
<glyph unicode="l" horiz-adv-x="651" d="M41 0v98h94v1237h-94v99h451v-1336h118v-98h-569z" />
<glyph unicode="m" horiz-adv-x="1875" d="M41 0v98l98 -4v840h-98v110h438v-65q53 41 138.5 69.5t177.5 28.5q95 0 181.5 -27.5t117.5 -70.5q34 36 123.5 67t177.5 31q159 0 254.5 -66t95.5 -175v-742h78v-98h-434v770q0 63 -48.5 111.5t-111.5 48.5q-36 0 -71 -11t-46 -24v-795h119v-98h-471v782q0 44 -45.5 96 t-102.5 52q-41 0 -81 -16t-48 -35v-779h111v-98h-553z" />
<glyph unicode="n" horiz-adv-x="1273" d="M47 950v99h449v-60q74 52 131.5 72t140.5 20q94 0 175 -32.5t131 -94t50 -139.5v-717h99v-98h-451v823q0 46 -44 80.5t-93 34.5q-37 0 -78 -14.5t-55 -26.5v-799h119v-98h-566v98h99v852h-107z" />
<glyph unicode="o" horiz-adv-x="1224" d="M63 524q0 113 43.5 216t117 178t175 119t213.5 44t213.5 -44t175 -119t117 -178t43.5 -216t-43.5 -216t-117 -178t-175 -119t-213.5 -44t-213.5 44t-175 119t-117 178t-43.5 216zM463 231q0 -78 41.5 -124t107.5 -46t108 46t42 124v582q0 78 -42 124t-108 46t-107.5 -46 t-41.5 -124v-582z" />
<glyph unicode="p" horiz-adv-x="1230" d="M29 -279h106v1229h-106v99h446v-64q19 38 84.5 67t142.5 29q107 0 197 -48.5t148 -128.5t90 -181.5t32 -210.5q0 -142 -55 -264.5t-160.5 -199.5t-238.5 -77q-55 0 -111.5 12t-85.5 25l-29 12v-299h111v-98h-571v98zM489 154q23 -35 50.5 -49.5t81.5 -14.5 q66 0 111.5 58.5t45.5 130.5v514q0 58 -42.5 118t-104.5 60q-44 0 -76.5 -21.5t-65.5 -62.5v-733z" />
<glyph unicode="q" horiz-adv-x="1245" d="M78 512q0 109 32 210.5t90 181.5t148 128.5t197 48.5q84 0 147.5 -19t81.5 -54l37 49h291v-1336h115v-98h-562v98h103v299q-31 -6 -66 -19.5t-70.5 -21.5t-89.5 -8q-133 0 -238.5 77t-160.5 199.5t-55 264.5zM469 279q0 -72 45.5 -130.5t112.5 -58.5q54 0 80.5 14.5 t50.5 49.5v733q-33 41 -65.5 62.5t-76.5 21.5q-62 0 -104.5 -60t-42.5 -118v-514z" />
<glyph unicode="r" horiz-adv-x="942" d="M47 0v98h107v856h-97v95h439v-68q21 35 85.5 64.5t131.5 29.5q87 0 148 -64t61 -153q0 -83 -55 -143t-136 -60q-65 0 -113.5 44t-48.5 108q0 51 25.5 91.5t64.5 47.5q-14 8 -31 8q-26 0 -64 -20q-60 -32 -72 -68l4 -768h125v-98h-574z" />
<glyph unicode="s" horiz-adv-x="1046" d="M57 737q0 81 41 148t108.5 109t149.5 64.5t168 22.5q183 0 318 -88v56h90v-293h-90v102q-35 39 -113.5 80t-155.5 41q-76 0 -133 -33t-57 -96q0 -35 21.5 -57.5t62.5 -42.5l291 -99q104 -35 166.5 -109t62.5 -177q0 -173 -124.5 -281.5t-321.5 -108.5q-108 0 -226 33.5 t-143 69.5v-78h-111v342h111l2 -137q4 -15 53 -42.5t122.5 -51t133.5 -23.5q76 0 135.5 33t59.5 96q0 45 -34 76t-83 47l-291 94q-90 32 -151.5 115t-61.5 188z" />
<glyph unicode="t" horiz-adv-x="655" d="M20 936v125h111v266l348 107v-373h123v-125h-123v-731q0 -107 135 -107v-98h-229q-138 0 -196 53t-58 176v707h-111z" />
<glyph unicode="u" horiz-adv-x="1226" d="M41 950v99h442v-832q0 -39 39.5 -69.5t87.5 -30.5q37 0 78 15t41 30v788h-102v99h450v-951h107v-98h-447v66q-38 -36 -117 -63.5t-161 -27.5q-115 0 -217.5 60.5t-102.5 140.5v774h-98z" />
<glyph unicode="v" horiz-adv-x="1210" d="M23 950v99h571v-99h-117l258 -696l248 696h-100v99h305v-99h-82l-352 -950h-291l-369 950h-71z" />
<glyph unicode="w" horiz-adv-x="1912" d="M23 950v99h559v-99h-125l217 -696l250 795h309l242 -795l231 696h-121v99h305v-99h-63l-330 -950h-291l-254 817l-262 -817h-291l-301 950h-75z" />
<glyph unicode="x" horiz-adv-x="1265" d="M41 0v98h74l352 418l-299 434h-98v99h626v-99h-116l180 -278l256 278h-127v99h336v-99h-86l-322 -368l328 -484h80v-98h-629v98h133l-209 320l-274 -320h135v-98h-340z" />
<glyph unicode="y" horiz-adv-x="1245" d="M10 -133q0 76 58.5 127t138.5 51q74 0 128 -49.5t54 -122.5q0 -64 -84 -131q5 -1 11 -1q36 0 98 51q73 60 96 106l51 102l-444 950h-94v99h598v-99h-121l258 -549l262 549h-125v99h328v-99h-82l-520 -1048q-135 -271 -355 -271q-114 0 -185 67t-71 169z" />
<glyph unicode="z" horiz-adv-x="1097" d="M53 0v98l586 852h-356l-95 -106v-160h-104v365h960v-74l-598 -877h361l127 123v160h110v-381h-991z" />
<glyph unicode="{" horiz-adv-x="733" d="M84 541v4q92 27 124 81t32 160v383q0 77 14.5 130.5t41.5 87t74.5 52t103 25t138.5 6.5v-86q-82 0 -118.5 -37.5t-36.5 -117.5v-410q0 -123 -32 -185.5t-128 -88.5v-4q96 -26 128 -89t32 -186v-409q0 -81 36.5 -118.5t118.5 -37.5v-86q-83 0 -138.5 6.5t-103 25t-74.5 52 t-41.5 87t-14.5 130.5v383q0 107 -32.5 161t-123.5 81z" />
<glyph unicode="|" horiz-adv-x="454" d="M121 0v1432h213v-1432h-213z" />
<glyph unicode="}" horiz-adv-x="733" d="M121 -299q82 0 118.5 37.5t36.5 118.5v409q0 123 32 186t128 89v4q-96 26 -128 88.5t-32 185.5v410q0 80 -36.5 117.5t-118.5 37.5v86q83 0 138.5 -6.5t103.5 -25t75 -52t41.5 -87t14.5 -130.5v-383q0 -107 32 -160.5t123 -80.5v-4q-91 -27 -123 -81t-32 -161v-383 q0 -77 -14.5 -130.5t-41.5 -87t-75 -52t-103.5 -25t-138.5 -6.5v86z" />
<glyph unicode="~" horiz-adv-x="1228" d="M150 500q28 37 48.5 60.5t53 51t71.5 41t85 13.5q76 0 215 -62q13 -6 42 -18.5t44.5 -19.5t38 -15.5t39.5 -12t32 -3.5q28 0 52.5 11t47 34.5t36.5 42t36 51.5l88 -195q-8 -8 -37 -38.5t-39.5 -41t-37 -32.5t-44.5 -30t-45.5 -16t-56.5 -8q-83 0 -198 64q-117 67 -222 67 q-100 0 -163 -139z" />
<glyph unicode="&#xa2;" horiz-adv-x="811" d="M70 717q0 184 97 311.5t247 149.5v151h65v-145q130 -3 200.5 -73t70.5 -175q0 -67 -33.5 -102t-91.5 -35q-56 0 -84.5 38t-28.5 93q0 57 28 92t87 35q-28 57 -113 57q-23 0 -35 -4v-760q6 -2 17 -2q44 0 79 20.5t57 56t36 74.5t22 85l60 -15q-8 -64 -25 -113.5t-47 -93 t-80.5 -69.5t-118.5 -31v-166h-65v166q-83 6 -150.5 47.5t-108.5 106.5t-63 142t-22 159zM307 711q0 -284 107 -340v710q-107 -75 -107 -370z" />
<glyph unicode="&#xa3;" horiz-adv-x="974" d="M51 614v84h168v4q-160 153 -160 379q0 158 104.5 255.5t276.5 97.5q50 0 96.5 -13.5t88.5 -40.5t67 -75.5t25 -112.5t-35 -102.5t-88 -38.5q-60 0 -94.5 38t-34.5 97q0 104 86 131q-33 41 -105 41q-62 0 -108.5 -48.5t-46.5 -121.5q0 -37 6.5 -70.5t14.5 -60t28.5 -58 t35.5 -52.5t48 -56.5t54 -56.5t66 -65t72 -71h267v-84h-217q47 -73 47 -157t-38.5 -165t-113.5 -147q67 -41 117 -41q59 0 101 44.5t81 130.5l72 -52q-30 -99 -101.5 -159t-164.5 -60q-104 0 -197 72q-44 -39 -90 -59.5t-111 -20.5q-80 0 -136 51.5t-56 124.5q0 63 59 97 t121 34q54 0 92 -13.5t96 -60.5q29 53 29 129q0 26 -4 48.5t-15 45t-17.5 36.5t-26 36t-25.5 29t-30 30.5t-27 26.5h-277z" />
<glyph unicode="&#xa5;" horiz-adv-x="630" d="M43 954v119h98v176q0 79 49 132t148 53h246v-111q-62 0 -78.5 -19.5t-16.5 -70.5v-160h99v-119h-99v-856h95v-98h-537v98h94v856h-98z" />
<glyph unicode="&#xab;" horiz-adv-x="747" d="M63 489l164 336h148l-119 -336l119 -335h-148zM367 489l163 336h148l-119 -336l119 -335h-148z" />
<glyph unicode="&#xad;" horiz-adv-x="557" d="M55 389v201h447v-201h-447z" />
<glyph unicode="&#xb8;" horiz-adv-x="702" d="M131 -131q12 56 74.5 93.5t138.5 37.5q87 0 151 -45.5t64 -114.5q0 -63 -61.5 -111t-151.5 -48q-76 0 -136 35.5t-77 93.5h135q12 -37 49 -37q22 0 38 20.5t16 48.5q0 29 -16 49.5t-38 20.5q-15 0 -31 -11.5t-22 -31.5h-133z" />
<glyph unicode="&#xbb;" horiz-adv-x="747" d="M70 154l118 335l-118 336h147l164 -336l-164 -335h-147zM373 154l119 335l-119 336h147l164 -336l-164 -335h-147z" />
<glyph unicode="&#xc6;" horiz-adv-x="1845" d="M35 0v106h86l532 1328h1088v-359h-121v129l-127 125h-381v-514h236v141h104v-381h-104v142h-236v-611h420l127 127v181h121v-414h-1198v106h157v312h-364l-123 -312h104v-106h-321zM416 514h323v809z" />
<glyph unicode="&#xc7;" horiz-adv-x="1353" d="M78 688q0 152 51.5 294t141.5 250t221 173t280 65q104 0 212.5 -38.5t137.5 -71.5v84h115v-371h-115v94q-16 33 -40.5 63t-60.5 60t-87.5 48t-110.5 18q-76 0 -131.5 -29t-89.5 -78t-54 -127t-27 -161t-7 -195q0 -131 9 -226.5t32 -177t62.5 -132t100.5 -78t146 -27.5 q68 0 127 29.5t94.5 70.5t55.5 75.5t24 53.5l105 -49q-44 -121 -168.5 -215.5t-278.5 -112.5q68 -14 113 -56t45 -99q0 -63 -61.5 -111.5t-151.5 -48.5q-76 0 -137 35.5t-78 93.5h137q12 -37 47 -37q22 0 39 21t17 49q0 29 -17 49.5t-39 20.5q-15 0 -30 -10.5t-21 -30.5 h-133q9 43 52 76.5t102 45.5q-176 15 -320.5 115.5t-226.5 258.5t-82 339z" />
<glyph unicode="&#xc8;" horiz-adv-x="1290" d="M47 0v106h119v1219h-119v109h1135v-361h-119v127l-129 125h-381v-514h238v141h106v-379h-106v142h-238v-609h422l127 127v183h119v-416h-1174zM285 1802h358l80 -332h-219z" />
<glyph unicode="&#xc9;" horiz-adv-x="1290" d="M47 0v106h119v1219h-119v109h1135v-361h-119v127l-129 125h-381v-514h238v141h106v-379h-106v142h-238v-609h422l127 127v183h119v-416h-1174zM434 1470l80 332h358l-219 -332h-219z" />
<glyph unicode="&#xca;" horiz-adv-x="1290" d="M47 0v106h119v1219h-119v109h1135v-361h-119v127l-129 125h-381v-514h238v141h106v-379h-106v142h-238v-609h422l127 127v183h119v-416h-1174zM311 1470l199 332h293l211 -332h-326l-98 160l-98 -160h-181z" />
<glyph unicode="&#xcb;" horiz-adv-x="1290" d="M47 0v106h119v1219h-119v109h1135v-361h-119v127l-129 125h-381v-514h238v141h106v-379h-106v142h-238v-609h422l127 127v183h119v-416h-1174zM281 1595q0 52 46.5 88.5t112.5 36.5t113 -36.5t47 -88.5t-47 -88.5t-113 -36.5t-112.5 36.5t-46.5 88.5zM649 1595 q0 52 47 88.5t113 36.5t113 -36.5t47 -88.5t-47 -88.5t-113 -36.5t-113 36.5t-47 88.5z" />
<glyph unicode="&#xcc;" horiz-adv-x="720" d="M37 1802h358l80 -332h-219zM45 0v106h121v1221h-121v107h631v-107h-121v-1221h121v-106h-631z" />
<glyph unicode="&#xcd;" horiz-adv-x="720" d="M45 0v106h121v1221h-121v107h631v-107h-121v-1221h121v-106h-631zM174 1470l80 332h358l-219 -332h-219z" />
<glyph unicode="&#xce;" horiz-adv-x="720" d="M2 1470l199 332h293l211 -332h-326l-98 160l-99 -160h-180zM45 0v106h121v1221h-121v107h631v-107h-121v-1221h121v-106h-631z" />
<glyph unicode="&#xcf;" horiz-adv-x="720" d="M14 1595q0 52 47 88.5t113 36.5t113 -36.5t47 -88.5t-47 -88.5t-113 -36.5t-113 36.5t-47 88.5zM45 0v106h121v1221h-121v107h631v-107h-121v-1221h121v-106h-631zM383 1595q0 52 47 88.5t113 36.5t112.5 -36.5t46.5 -88.5t-46.5 -88.5t-112.5 -36.5t-113 36.5t-47 88.5z " />
<glyph unicode="&#xd1;" horiz-adv-x="1456" d="M51 0v106h119v1221h-119v107h481l621 -916v809h-121v107h375v-107h-119v-1327h-256l-725 1071v-965h119v-106h-375zM414 1473q17 115 74 177t137 62q27 0 55.5 -9t44 -16.5t47.5 -25.5t47 -25.5t42 -16.5t50 -9q68 0 103 102h63q-8 -41 -22.5 -79.5t-38.5 -77t-62.5 -62 t-85.5 -23.5q-48 0 -92 16.5t-71.5 37t-61 37t-61.5 16.5q-71 0 -105 -104h-63z" />
<glyph unicode="&#xd2;" d="M70 717q0 205 82.5 379t225 275.5t310.5 101.5q125 0 239.5 -60t197.5 -161.5t132.5 -241.5t49.5 -293q0 -205 -83.5 -379.5t-226 -275.5t-309.5 -101q-126 0 -240.5 60t-197 161t-131.5 241t-49 294zM397 1855h359l80 -331h-220zM496 315q0 -96 52 -164.5t136 -68.5 t136 68.5t52 164.5v818q0 96 -52 164.5t-136 68.5t-136 -68.5t-52 -164.5v-818z" />
<glyph unicode="&#xd3;" d="M70 717q0 205 82.5 379t225 275.5t310.5 101.5q125 0 239.5 -60t197.5 -161.5t132.5 -241.5t49.5 -293q0 -205 -83.5 -379.5t-226 -275.5t-309.5 -101q-126 0 -240.5 60t-197 161t-131.5 241t-49 294zM481 1526l80 332h359l-220 -332h-219zM496 315q0 -96 52 -164.5 t136 -68.5t136 68.5t52 164.5v818q0 96 -52 164.5t-136 68.5t-136 -68.5t-52 -164.5v-818z" />
<glyph unicode="&#xd4;" d="M70 717q0 205 82.5 379t225 275.5t310.5 101.5q125 0 239.5 -60t197.5 -161.5t132.5 -241.5t49.5 -293q0 -205 -83.5 -379.5t-226 -275.5t-309.5 -101q-126 0 -240.5 60t-197 161t-131.5 241t-49 294zM362 1524l199 331h293l211 -331h-326l-98 159l-98 -159h-181z M496 315q0 -96 52 -164.5t136 -68.5t136 68.5t52 164.5v818q0 96 -52 164.5t-136 68.5t-136 -68.5t-52 -164.5v-818z" />
<glyph unicode="&#xd5;" d="M70 717q0 205 82.5 379t225 275.5t310.5 101.5q125 0 239.5 -60t197.5 -161.5t132.5 -241.5t49.5 -293q0 -205 -83.5 -379.5t-226 -275.5t-309.5 -101q-126 0 -240.5 60t-197 161t-131.5 241t-49 294zM362 1524q17 115 74 177t137 62q27 0 55.5 -8.5t45 -17t47.5 -25.5 q32 -18 47 -25.5t42 -16.5t50 -9q68 0 103 102h63q-8 -41 -22.5 -79t-38.5 -76.5t-62.5 -62t-85.5 -23.5q-48 0 -92.5 16.5t-72 36.5t-61 36.5t-61.5 16.5q-70 0 -104 -104h-64zM496 315q0 -96 52 -164.5t136 -68.5t136 68.5t52 164.5v818q0 96 -52 164.5t-136 68.5 t-136 -68.5t-52 -164.5v-818z" />
<glyph unicode="&#xd6;" d="M70 717q0 205 82.5 379t225 275.5t310.5 101.5q125 0 239.5 -60t197.5 -161.5t132.5 -241.5t49.5 -293q0 -205 -83.5 -379.5t-226 -275.5t-309.5 -101q-126 0 -240.5 60t-197 161t-131.5 241t-49 294zM352 1649q0 52 47 88.5t113 36.5t113 -36.5t47 -88.5t-47 -88.5 t-113 -36.5t-113 36.5t-47 88.5zM496 315q0 -96 52 -164.5t136 -68.5t136 68.5t52 164.5v818q0 96 -52 164.5t-136 68.5t-136 -68.5t-52 -164.5v-818zM721 1649q0 52 47 88.5t113 36.5t112.5 -36.5t46.5 -88.5t-46.5 -88.5t-112.5 -36.5t-113 36.5t-47 88.5z" />
<glyph unicode="&#xd7;" horiz-adv-x="1228" d="M125 152l340 337l-340 338l151 152l338 -338l338 338l152 -152l-338 -338l338 -337l-152 -152l-338 340l-338 -340z" />
<glyph unicode="&#xd9;" d="M35 1327v107h627v-107h-119v-885q8 -169 76.5 -245t214.5 -76q122 0 201 72t79 204v932h-121v105h348v-109h-112l2 -1006q0 -18 -10.5 -48.5t-33 -72.5t-64 -83t-95.5 -76.5t-136 -57.5t-179 -22q-124 0 -223 28.5t-160 73t-101.5 104t-56.5 115.5t-16 113v934h-121z M420 1802h358l80 -332h-219z" />
<glyph unicode="&#xda;" d="M35 1327v107h627v-107h-119v-885q8 -169 76.5 -245t214.5 -76q122 0 201 72t79 204v932h-121v105h348v-109h-112l2 -1006q0 -18 -10.5 -48.5t-33 -72.5t-64 -83t-95.5 -76.5t-136 -57.5t-179 -22q-124 0 -223 28.5t-160 73t-101.5 104t-56.5 115.5t-16 113v934h-121z M545 1470l80 332h358l-219 -332h-219z" />
<glyph unicode="&#xdb;" d="M35 1327v107h627v-107h-119v-885q8 -169 76.5 -245t214.5 -76q122 0 201 72t79 204v932h-121v105h348v-109h-112l2 -1006q0 -18 -10.5 -48.5t-33 -72.5t-64 -83t-95.5 -76.5t-136 -57.5t-179 -22q-124 0 -223 28.5t-160 73t-101.5 104t-56.5 115.5t-16 113v934h-121z M389 1470l199 332h293l211 -332h-326l-98 160l-99 -160h-180z" />
<glyph unicode="&#xdc;" d="M35 1327v107h627v-107h-119v-885q8 -169 76.5 -245t214.5 -76q122 0 201 72t79 204v932h-121v105h348v-109h-112l2 -1006q0 -18 -10.5 -48.5t-33 -72.5t-64 -83t-95.5 -76.5t-136 -57.5t-179 -22q-124 0 -223 28.5t-160 73t-101.5 104t-56.5 115.5t-16 113v934h-121z M428 1595q0 52 47 88.5t113 36.5t113 -36.5t47 -88.5t-47 -88.5t-113 -36.5t-113 36.5t-47 88.5zM797 1595q0 52 46.5 88.5t112.5 36.5t113 -36.5t47 -88.5t-47 -88.5t-113 -36.5t-112.5 36.5t-46.5 88.5z" />
<glyph unicode="&#xdf;" horiz-adv-x="1093" d="M35 -2v98h112v762h-112v98h112q0 132 50 239.5t146 172t222 64.5q169 0 277 -101t108 -239q0 -67 -22.5 -118.5t-56.5 -80t-73.5 -51.5t-73.5 -34.5t-56.5 -26.5t-22.5 -31q0 -22 30.5 -46.5t76 -47.5t98.5 -57t98.5 -71.5t76 -95.5t30.5 -125q0 -154 -87 -244t-225 -90 q-80 0 -127 23t-59 45v-41h-86v365h86v-172q15 -46 62 -90t110 -44q59 0 95 35.5t36 95.5q0 43 -30.5 84t-75.5 71t-98.5 65t-98.5 66.5t-75.5 75.5t-30.5 91q0 61 27 102.5t97 110.5q51 49 73 74.5t36 62t14 86.5q0 72 -12.5 129t-49 99.5t-93.5 42.5q-142 0 -142 -232 v-1118z" />
<glyph unicode="&#xe0;" horiz-adv-x="1175" d="M68 258q0 48 9 87.5t29.5 70t42 53t58 44.5t65 35.5t74.5 33.5q47 20 118.5 36.5t118 26t82 34.5t35.5 66v101q0 44 -60.5 90.5t-123.5 46.5q-70 0 -106 -33q40 -7 77 -46.5t37 -88.5q0 -55 -54 -100t-120 -45q-79 0 -149 44.5t-70 100.5q0 63 27 111t69.5 76.5t103 47 t120 25t127.5 6.5q191 0 333 -73t142 -166v-744h92v-98h-445v57q-35 -24 -114 -48.5t-152 -24.5q-50 0 -111 17.5t-119 50t-97 87t-39 119.5zM266 1470h359l80 -331h-220zM461 291q5 -76 46 -124t105 -48q61 0 88 37v413q-10 -6 -46 -18t-66 -27.5t-63 -43t-50 -76 t-14 -113.5z" />
<glyph unicode="&#xe1;" horiz-adv-x="1175" d="M68 258q0 48 9 87.5t29.5 70t42 53t58 44.5t65 35.5t74.5 33.5q47 20 118.5 36.5t118 26t82 34.5t35.5 66v101q0 44 -60.5 90.5t-123.5 46.5q-70 0 -106 -33q40 -7 77 -46.5t37 -88.5q0 -55 -54 -100t-120 -45q-79 0 -149 44.5t-70 100.5q0 63 27 111t69.5 76.5t103 47 t120 25t127.5 6.5q191 0 333 -73t142 -166v-744h92v-98h-445v57q-35 -24 -114 -48.5t-152 -24.5q-50 0 -111 17.5t-119 50t-97 87t-39 119.5zM457 1139l80 331h358l-219 -331h-219zM461 291q5 -76 46 -124t105 -48q61 0 88 37v413q-10 -6 -46 -18t-66 -27.5t-63 -43t-50 -76 t-14 -113.5z" />
<glyph unicode="&#xe2;" horiz-adv-x="1175" d="M68 258q0 48 9 87.5t29.5 70t42 53t58 44.5t65 35.5t74.5 33.5q47 20 118.5 36.5t118 26t82 34.5t35.5 66v101q0 44 -60.5 90.5t-123.5 46.5q-70 0 -106 -33q40 -7 77 -46.5t37 -88.5q0 -55 -54 -100t-120 -45q-79 0 -149 44.5t-70 100.5q0 63 27 111t69.5 76.5t103 47 t120 25t127.5 6.5q191 0 333 -73t142 -166v-744h92v-98h-445v57q-35 -24 -114 -48.5t-152 -24.5q-50 0 -111 17.5t-119 50t-97 87t-39 119.5zM238 1139l198 331h293l211 -331h-326l-98 159l-98 -159h-180zM461 291q5 -76 46 -124t105 -48q61 0 88 37v413q-10 -6 -46 -18 t-66 -27.5t-63 -43t-50 -76t-14 -113.5z" />
<glyph unicode="&#xe3;" horiz-adv-x="1175" d="M68 258q0 48 9 87.5t29.5 70t42 53t58 44.5t65 35.5t74.5 33.5q47 20 118.5 36.5t118 26t82 34.5t35.5 66v101q0 44 -60.5 90.5t-123.5 46.5q-70 0 -106 -33q40 -7 77 -46.5t37 -88.5q0 -55 -54 -100t-120 -45q-79 0 -149 44.5t-70 100.5q0 63 27 111t69.5 76.5t103 47 t120 25t127.5 6.5q191 0 333 -73t142 -166v-744h92v-98h-445v57q-35 -24 -114 -48.5t-152 -24.5q-50 0 -111 17.5t-119 50t-97 87t-39 119.5zM274 1196q17 116 74 178t137 62q26 0 55.5 -9t44.5 -17t48 -26q32 -18 47 -25.5t42 -16.5t50 -9q67 0 102 103h64 q-8 -41 -22.5 -79.5t-38.5 -77t-62.5 -62t-85.5 -23.5q-48 0 -92.5 16.5t-72 36.5t-61 36.5t-61.5 16.5q-70 0 -104 -104h-64zM461 291q5 -76 46 -124t105 -48q61 0 88 37v413q-10 -6 -46 -18t-66 -27.5t-63 -43t-50 -76t-14 -113.5z" />
<glyph unicode="&#xe4;" horiz-adv-x="1175" d="M68 258q0 48 9 87.5t29.5 70t42 53t58 44.5t65 35.5t74.5 33.5q47 20 118.5 36.5t118 26t82 34.5t35.5 66v101q0 44 -60.5 90.5t-123.5 46.5q-70 0 -106 -33q40 -7 77 -46.5t37 -88.5q0 -55 -54 -100t-120 -45q-79 0 -149 44.5t-70 100.5q0 63 27 111t69.5 76.5t103 47 t120 25t127.5 6.5q191 0 333 -73t142 -166v-744h92v-98h-445v57q-35 -24 -114 -48.5t-152 -24.5q-50 0 -111 17.5t-119 50t-97 87t-39 119.5zM242 1276q0 52 46.5 88.5t112.5 36.5t113 -36.5t47 -88.5t-47 -88.5t-113 -36.5t-112.5 36.5t-46.5 88.5zM461 291q5 -76 46 -124 t105 -48q61 0 88 37v413q-10 -6 -46 -18t-66 -27.5t-63 -43t-50 -76t-14 -113.5zM610 1276q0 52 47 88.5t113 36.5t113 -36.5t47 -88.5t-47 -88.5t-113 -36.5t-113 36.5t-47 88.5z" />
<glyph unicode="&#xe6;" horiz-adv-x="1726" d="M68 258q0 48 9 87.5t29.5 70t42 53t58 44.5t65 35.5t74.5 33.5q47 20 118.5 36.5t118 26t82 34.5t35.5 66v101q0 44 -60.5 90.5t-123.5 46.5q-70 0 -106 -33q40 -7 77 -46.5t37 -88.5q0 -55 -54 -100t-120 -45q-79 0 -149 44.5t-70 100.5q0 63 27 111t69.5 76.5t103 47 t120 25t127.5 6.5q210 0 325 -86q59 40 136.5 64t152.5 24q183 0 311.5 -103t155.5 -286l-594 -274q12 -111 99 -195t204 -84q130 0 234 129l61 -53q-54 -95 -181 -165t-284 -70q-98 0 -189 33.5t-157 93.5v2q-79 -54 -194.5 -90.5t-223.5 -36.5q-93 0 -174 29t-136.5 93 t-55.5 152zM461 291q5 -76 46 -124t105 -48q61 0 88 37v413q-10 -6 -46 -18t-66 -27.5t-63 -43t-50 -76t-14 -113.5zM1067 522l250 123v217q0 53 -36.5 90t-88.5 37t-88.5 -37t-36.5 -90v-340z" />
<glyph unicode="&#xe7;" horiz-adv-x="1105" d="M70 528q0 152 79 280t211.5 200.5t286.5 72.5v-8q72 0 141 -18t126.5 -51.5t92.5 -88t35 -122.5q0 -86 -56.5 -148.5t-139.5 -62.5q-82 0 -142.5 52t-60.5 130q0 63 42 103.5t112 52.5q-59 41 -123 41q-62 0 -103 -27t-63.5 -82.5t-31.5 -125t-9 -169.5 q0 -225 63.5 -328.5t186.5 -103.5q74 0 127.5 35t109.5 104l90 -59q-47 -58 -82.5 -95t-80 -71t-94 -52t-107.5 -22q71 -8 119.5 -44.5t48.5 -96.5q0 -71 -58 -117.5t-135 -46.5q-70 0 -127 35.5t-53 89.5h105q0 -17 12 -28t29 -11q38 0 38 68q0 63 -36 63q-19 0 -34 -13 t-11 -28h-103q1 46 39.5 85t91.5 50q-223 14 -379.5 174.5t-156.5 382.5z" />
<glyph unicode="&#xe8;" horiz-adv-x="1112" d="M70 518q0 147 64.5 276t182.5 208t261 79q182 0 310.5 -104.5t155.5 -288.5l-593 -274q12 -111 99 -195t204 -84q129 0 233 129l62 -53q-54 -95 -181 -165.5t-284 -70.5q-144 0 -263 75t-185 199t-66 269zM279 1470h358l80 -331h-219zM453 514l249 123v221q0 53 -36 90 t-88 37t-88.5 -37t-36.5 -90v-344z" />
<glyph unicode="&#xe9;" horiz-adv-x="1112" d="M70 518q0 147 64.5 276t182.5 208t261 79q182 0 310.5 -104.5t155.5 -288.5l-593 -274q12 -111 99 -195t204 -84q129 0 233 129l62 -53q-54 -95 -181 -165.5t-284 -70.5q-144 0 -263 75t-185 199t-66 269zM342 1139l80 331h358l-219 -331h-219zM453 514l249 123v221 q0 53 -36 90t-88 37t-88.5 -37t-36.5 -90v-344z" />
<glyph unicode="&#xea;" horiz-adv-x="1112" d="M70 518q0 147 64.5 276t182.5 208t261 79q182 0 310.5 -104.5t155.5 -288.5l-593 -274q12 -111 99 -195t204 -84q129 0 233 129l62 -53q-54 -95 -181 -165.5t-284 -70.5q-144 0 -263 75t-185 199t-66 269zM250 1139l199 331h292l211 -331h-325l-99 159l-98 -159h-180z M453 514l249 123v221q0 53 -36 90t-88 37t-88.5 -37t-36.5 -90v-344z" />
<glyph unicode="&#xeb;" horiz-adv-x="1112" d="M70 518q0 147 64.5 276t182.5 208t261 79q182 0 310.5 -104.5t155.5 -288.5l-593 -274q12 -111 99 -195t204 -84q129 0 233 129l62 -53q-54 -95 -181 -165.5t-284 -70.5q-144 0 -263 75t-185 199t-66 269zM201 1276q0 52 46.5 88.5t112.5 36.5t113 -36.5t47 -88.5 t-47 -88.5t-113 -36.5t-112.5 36.5t-46.5 88.5zM453 514l249 123v221q0 53 -36 90t-88 37t-88.5 -37t-36.5 -90v-344zM569 1276q0 52 47 88.5t113 36.5t113 -36.5t47 -88.5t-47 -88.5t-113 -36.5t-113 36.5t-47 88.5z" />
<glyph unicode="&#xec;" horiz-adv-x="692" d="M63 954v95h459v-951h107v-98h-559v98h106v856h-113zM68 1470h358l80 -331h-219z" />
<glyph unicode="&#xed;" horiz-adv-x="692" d="M63 954v95h459v-951h107v-98h-559v98h106v856h-113zM172 1139l80 331h358l-219 -331h-219z" />
<glyph unicode="&#xee;" horiz-adv-x="692" d="M-12 1139l198 331h293l211 -331h-325l-99 159l-98 -159h-180zM57 954v95h459v-951h107v-98h-560v98h107v856h-113z" />
<glyph unicode="&#xef;" horiz-adv-x="692" d="M-6 1276q0 52 47 88.5t113 36.5t112.5 -36.5t46.5 -88.5t-46.5 -88.5t-112.5 -36.5t-113 36.5t-47 88.5zM57 954v95h459v-951h107v-98h-560v98h107v856h-113zM362 1276q0 52 47 88.5t113 36.5t113 -36.5t47 -88.5t-47 -88.5t-113 -36.5t-113 36.5t-47 88.5z" />
<glyph unicode="&#xf1;" horiz-adv-x="1273" d="M47 950v99h449v-60q74 52 131.5 72t140.5 20q94 0 175 -32.5t131 -94t50 -139.5v-717h99v-98h-451v823q0 46 -44 80.5t-93 34.5q-37 0 -78 -14.5t-55 -26.5v-799h119v-98h-566v98h99v852h-107zM287 1196q17 116 74 178t137 62q26 0 55.5 -9.5t43.5 -16.5t48 -26 q32 -18 47 -25.5t42 -16.5t50 -9q68 0 103 103h63q-8 -41 -22.5 -79.5t-38.5 -77t-62.5 -62t-85.5 -23.5q-48 0 -92 16.5t-71.5 36.5t-61 36.5t-61.5 16.5q-71 0 -105 -104h-63z" />
<glyph unicode="&#xf2;" horiz-adv-x="1224" d="M63 524q0 113 43.5 216t117 178t175 119t213.5 44t213.5 -44t175 -119t117 -178t43.5 -216t-43.5 -216t-117 -178t-175 -119t-213.5 -44t-213.5 44t-175 119t-117 178t-43.5 216zM332 1470h358l80 -331h-219zM463 231q0 -78 41.5 -124t107.5 -46t108 46t42 124v582 q0 78 -42 124t-108 46t-107.5 -46t-41.5 -124v-582z" />
<glyph unicode="&#xf3;" horiz-adv-x="1224" d="M63 524q0 113 43.5 216t117 178t175 119t213.5 44t213.5 -44t175 -119t117 -178t43.5 -216t-43.5 -216t-117 -178t-175 -119t-213.5 -44t-213.5 44t-175 119t-117 178t-43.5 216zM410 1139l79 331h359l-219 -331h-219zM463 231q0 -78 41.5 -124t107.5 -46t108 46t42 124 v582q0 78 -42 124t-108 46t-107.5 -46t-41.5 -124v-582z" />
<glyph unicode="&#xf4;" horiz-adv-x="1224" d="M63 524q0 113 43.5 216t117 178t175 119t213.5 44t213.5 -44t175 -119t117 -178t43.5 -216t-43.5 -216t-117 -178t-175 -119t-213.5 -44t-213.5 44t-175 119t-117 178t-43.5 216zM266 1139l199 331h293l211 -331h-326l-98 159l-99 -159h-180zM463 231q0 -78 41.5 -124 t107.5 -46t108 46t42 124v582q0 78 -42 124t-108 46t-107.5 -46t-41.5 -124v-582z" />
<glyph unicode="&#xf5;" horiz-adv-x="1224" d="M63 524q0 113 43.5 216t117 178t175 119t213.5 44t213.5 -44t175 -119t117 -178t43.5 -216t-43.5 -216t-117 -178t-175 -119t-213.5 -44t-213.5 44t-175 119t-117 178t-43.5 216zM303 1196q17 116 74 178t137 62q26 0 55.5 -9t44.5 -17t48 -26q32 -18 47 -25.5t42 -16.5 t50 -9q67 0 102 103h64q-8 -41 -22.5 -79.5t-38.5 -77t-62.5 -62t-85.5 -23.5q-48 0 -92.5 16.5t-72 36.5t-61 36.5t-61.5 16.5q-70 0 -104 -104h-64zM463 231q0 -78 41.5 -124t107.5 -46t108 46t42 124v582q0 78 -42 124t-108 46t-107.5 -46t-41.5 -124v-582z" />
<glyph unicode="&#xf6;" horiz-adv-x="1224" d="M63 524q0 113 43.5 216t117 178t175 119t213.5 44t213.5 -44t175 -119t117 -178t43.5 -216t-43.5 -216t-117 -178t-175 -119t-213.5 -44t-213.5 44t-175 119t-117 178t-43.5 216zM293 1276q0 52 47 88.5t113 36.5t112.5 -36.5t46.5 -88.5t-46.5 -88.5t-112.5 -36.5 t-113 36.5t-47 88.5zM463 231q0 -78 41.5 -124t107.5 -46t108 46t42 124v582q0 78 -42 124t-108 46t-107.5 -46t-41.5 -124v-582zM662 1276q0 52 46.5 88.5t112.5 36.5t113 -36.5t47 -88.5t-47 -88.5t-113 -36.5t-112.5 36.5t-46.5 88.5z" />
<glyph unicode="&#xf7;" horiz-adv-x="1228" d="M125 383v213h979v-213h-979zM469 37q0 60 42.5 102.5t102.5 42.5t103 -42.5t43 -102.5t-43 -103t-103 -43t-102.5 43t-42.5 103zM469 942q0 60 42.5 102.5t102.5 42.5t103 -42.5t43 -102.5t-43 -102.5t-103 -42.5t-102.5 42.5t-42.5 102.5z" />
<glyph unicode="&#xf8;" horiz-adv-x="1224" d="M61 524q0 113 43.5 216t117 178t175 119t213.5 44q133 0 252 -61l58 94h90l-82 -135q108 -76 170.5 -196t62.5 -259q0 -113 -43.5 -216t-117 -178t-175 -119t-213.5 -44q-137 0 -260 68l-73 -121h-97l101 164q-102 78 -161 195t-59 251h-2zM461 215v2q4 -72 45 -114 t104 -42q66 0 108 46t42 124v474zM461 369l295 481q-9 62 -48.5 97.5t-97.5 35.5q-66 0 -107.5 -46t-41.5 -124v-444z" />
<glyph unicode="&#xf9;" horiz-adv-x="1226" d="M41 950v99h442v-832q0 -39 39.5 -69.5t87.5 -30.5q37 0 78 15t41 30v788h-102v99h450v-951h107v-98h-447v66q-38 -36 -117 -63.5t-161 -27.5q-115 0 -217.5 60.5t-102.5 140.5v774h-98zM315 1470h359l80 -331h-219z" />
<glyph unicode="&#xfa;" horiz-adv-x="1226" d="M41 950v99h442v-832q0 -39 39.5 -69.5t87.5 -30.5q37 0 78 15t41 30v788h-102v99h450v-951h107v-98h-447v66q-38 -36 -117 -63.5t-161 -27.5q-115 0 -217.5 60.5t-102.5 140.5v774h-98zM389 1139l80 331h358l-219 -331h-219z" />
<glyph unicode="&#xfb;" horiz-adv-x="1228" d="M43 950v99h442v-832q0 -39 39.5 -69.5t87.5 -30.5q37 0 78 15t41 30v788h-102v99h450v-951h107v-98h-447v66q-38 -36 -117 -63.5t-161 -27.5q-115 0 -217.5 60.5t-102.5 140.5v774h-98zM262 1139l199 331h293l211 -331h-326l-98 159l-99 -159h-180z" />
<glyph unicode="&#xfc;" horiz-adv-x="1226" d="M41 950v99h442v-832q0 -39 39.5 -69.5t87.5 -30.5q37 0 78 15t41 30v788h-102v99h450v-951h107v-98h-447v66q-38 -36 -117 -63.5t-161 -27.5q-115 0 -217.5 60.5t-102.5 140.5v774h-98zM276 1276q0 52 47 88.5t113 36.5t113 -36.5t47 -88.5t-47 -88.5t-113 -36.5 t-113 36.5t-47 88.5zM645 1276q0 52 47 88.5t113 36.5t113 -36.5t47 -88.5t-47 -88.5t-113 -36.5t-113 36.5t-47 88.5z" />
<glyph unicode="&#x152;" horiz-adv-x="2070" d="M70 723q0 200 85.5 369t232.5 267.5t321 98.5q83 0 165 -24h1088v-357h-121v127l-129 125h-379v-514h236v141h104v-381h-104v142h-236v-611h420l127 130v180h121v-416h-1176q-36 -10 -100 -10q-137 0 -259.5 59t-208.5 158.5t-136.5 234t-50.5 281.5zM508 670 q0 -71 1 -117t5 -113t12 -110.5t23.5 -92.5t37 -78t55 -48t75.5 -19q37 0 67 13t51.5 40.5t37.5 58.5t25.5 78t16 87.5t9 98.5t3.5 100t1 102v65v68q0 70 -1 116.5t-5.5 112t-12.5 109.5t-23.5 92t-37.5 76.5t-55.5 47.5t-75.5 19t-75.5 -19t-55 -47t-37 -77t-23.5 -92 t-12 -109.5t-5 -112t-1 -116.5v-68v-65z" />
<glyph unicode="&#x153;" horiz-adv-x="1835" d="M63 524q0 113 43.5 216t117 178t175 119t213.5 44q205 0 359 -135q138 135 329 135q183 0 311.5 -104.5t155.5 -288.5l-593 -274q12 -111 99 -195t204 -84q129 0 233 129l62 -53q-54 -95 -181 -165.5t-284 -70.5q-192 0 -334 129q-153 -137 -361 -137q-112 0 -213.5 44 t-175 119t-117 178t-43.5 216zM463 231q0 -78 41.5 -124t107.5 -46t108 46t42 124v582q0 78 -42 124t-108 46t-107.5 -46t-41.5 -124v-582zM1176 514l249 123v221q0 53 -36.5 90t-88.5 37t-88 -37t-36 -90v-344z" />
<glyph unicode="&#x2000;" horiz-adv-x="929" />
<glyph unicode="&#x2001;" horiz-adv-x="1858" />
<glyph unicode="&#x2002;" horiz-adv-x="929" />
<glyph unicode="&#x2003;" horiz-adv-x="1858" />
<glyph unicode="&#x2004;" horiz-adv-x="619" />
<glyph unicode="&#x2005;" horiz-adv-x="464" />
<glyph unicode="&#x2006;" horiz-adv-x="309" />
<glyph unicode="&#x2007;" horiz-adv-x="309" />
<glyph unicode="&#x2008;" horiz-adv-x="232" />
<glyph unicode="&#x2009;" horiz-adv-x="371" />
<glyph unicode="&#x200a;" horiz-adv-x="103" />
<glyph unicode="&#x2010;" horiz-adv-x="557" d="M55 389v201h447v-201h-447z" />
<glyph unicode="&#x2011;" horiz-adv-x="557" d="M55 389v201h447v-201h-447z" />
<glyph unicode="&#x2012;" horiz-adv-x="557" d="M55 389v201h447v-201h-447z" />
<glyph unicode="&#x2013;" horiz-adv-x="1134" d="M55 389v201h1024v-201h-1024z" />
<glyph unicode="&#x2014;" horiz-adv-x="2158" d="M55 389v201h2048v-201h-2048z" />
<glyph unicode="&#x202f;" horiz-adv-x="371" />
<glyph unicode="&#x205f;" horiz-adv-x="464" />
<glyph unicode="&#x25fc;" horiz-adv-x="1044" d="M0 0v1044h1044v-1044h-1044z" />
</font>
</defs>
</svg>
